HIERARCHY
ROOT Hips
{
	OFFSET 0.000000 0.000000 0.000000
	CHANNELS 6 Xposition Yposition Zposition Zrotation Yrotation Xrotation 
	JOINT LHipJoint
	{
		OFFSET 0.000000 0.000000 0.000000
		CHANNELS 3 Zrotation Yrotation Xrotation
		JOINT LeftUpLeg
		{
			OFFSET 1.363060 -1.794630 0.839290
			CHANNELS 3 Zrotation Yrotation Xrotation
			JOINT LeftLeg
			{
				OFFSET 2.448110 -6.726130 0.000000
				CHANNELS 3 Zrotation Yrotation Xrotation
				JOINT LeftFoot
				{
					OFFSET 2.562200 -7.039590 0.000000
					CHANNELS 3 Zrotation Yrotation Xrotation
					JOINT LeftToeBase
					{
						OFFSET 0.157640 -0.433110 2.322550
						CHANNELS 3 Zrotation Yrotation Xrotation
						End Site
						{
							OFFSET 0.000000 0.000000 0.000000
						}
					}
				}
			}
		}
	}
	JOINT RHipJoint
	{
		OFFSET 0.000000 0.000000 0.000000
		CHANNELS 3 Zrotation Yrotation Xrotation
		JOINT RightUpLeg
		{
			OFFSET -1.305520 -1.794630 0.839290
			CHANNELS 3 Zrotation Yrotation Xrotation
			JOINT RightLeg
			{
				OFFSET -2.542530 -6.985550 0.000000
				CHANNELS 3 Zrotation Yrotation Xrotation
				JOINT RightFoot
				{
					OFFSET -2.568260 -7.056230 0.000000
					CHANNELS 3 Zrotation Yrotation Xrotation
					JOINT RightToeBase
					{
						OFFSET -0.164730 -0.452590 2.363150
						CHANNELS 3 Zrotation Yrotation Xrotation
						End Site
						{
							OFFSET 0.000000 0.000000 0.000000
						}
					}
				}
			}
		}
	}
	JOINT LowerBack
	{
		OFFSET 0.000000 0.000000 0.000000
		CHANNELS 3 Zrotation Yrotation Xrotation
		JOINT Spine
		{
			OFFSET 0.028270 2.035590 -0.193380
			CHANNELS 3 Zrotation Yrotation Xrotation
			JOINT Spine1
			{
				OFFSET 0.056720 2.048850 -0.042750
				CHANNELS 3 Zrotation Yrotation Xrotation
				JOINT Neck
				{
					OFFSET 0.000000 0.000000 0.000000
					CHANNELS 3 Zrotation Yrotation Xrotation
					JOINT Neck1
					{
						OFFSET -0.054170 1.746240 0.172020
						CHANNELS 3 Zrotation Yrotation Xrotation
						JOINT Head
						{
							OFFSET 0.104070 1.761360 -0.123970
							CHANNELS 3 Zrotation Yrotation Xrotation
							End Site
							{
								OFFSET 0.000000 0.000000 0.000000
							}
						}
					}
				}
				JOINT LeftShoulder
				{
					OFFSET 0.000000 0.000000 0.000000
					CHANNELS 3 Zrotation Yrotation Xrotation
					JOINT LeftArm
					{
						OFFSET 3.362410 1.200890 -0.311210
						CHANNELS 3 Zrotation Yrotation Xrotation
						JOINT LeftForeArm
						{
							OFFSET 4.983000 -0.000000 -0.000000
							CHANNELS 3 Zrotation Yrotation Xrotation
							JOINT LeftHand
							{
								OFFSET 3.483560 -0.000000 -0.000000
								CHANNELS 3 Zrotation Yrotation Xrotation
								JOINT LeftFingerBase
								{
									OFFSET 0.000000 0.000000 0.000000
									CHANNELS 3 Zrotation Yrotation Xrotation
									JOINT LeftHandIndex1
									{
										OFFSET 0.715260 -0.000000 -0.000000
										CHANNELS 3 Zrotation Yrotation Xrotation
										End Site
										{
											OFFSET 0.000000 0.000000 0.000000
										}
									}
								}
								JOINT LThumb
								{
									OFFSET 0.000000 0.000000 0.000000
									CHANNELS 3 Zrotation Yrotation Xrotation
									End Site
									{
										OFFSET 0.000000 0.000000 0.000000
									}
								}
							}
						}
					}
				}
				JOINT RightShoulder
				{
					OFFSET 0.000000 0.000000 0.000000
					CHANNELS 3 Zrotation Yrotation Xrotation
					JOINT RightArm
					{
						OFFSET -3.136600 1.374050 -0.404650
						CHANNELS 3 Zrotation Yrotation Xrotation
						JOINT RightForeArm
						{
							OFFSET -5.241900 -0.000000 -0.000000
							CHANNELS 3 Zrotation Yrotation Xrotation
							JOINT RightHand
							{
								OFFSET -3.444170 -0.000000 -0.000000
								CHANNELS 3 Zrotation Yrotation Xrotation
								JOINT RightFingerBase
								{
									OFFSET 0.000000 0.000000 0.000000
									CHANNELS 3 Zrotation Yrotation Xrotation
									JOINT RightHandIndex1
									{
										OFFSET -0.622530 -0.000000 -0.000000
										CHANNELS 3 Zrotation Yrotation Xrotation
										End Site
										{
											OFFSET 0.000000 0.000000 0.000000
										}
									}
								}
								JOINT RThumb
								{
									OFFSET 0.000000 0.000000 0.000000
									CHANNELS 3 Zrotation Yrotation Xrotation
									End Site
									{
										OFFSET 0.000000 0.000000 0.000000
									}
								}
							}
						}
					}
				}
			}
		}
	}
}
MOTION
Frames: 8
Frame Time: 0.008333
2.362776 16.982909 1.054840 16.155179 -73.160856 -3.208547 -9.260386 3.177393 4.320220 -10.806883 0.088814 -24.651320 -2.448528 0.193553 20.764067 1.427996 7.332247 -7.838031 0.020500 0.000000 -47.077400 11.506251 -0.083055 0.117565 -2.775262 -17.727720 -17.742525 0.948999 -0.239988 22.016568 -2.661343 -12.648744 -7.101698 -0.785300 0.000001 -71.925900 -2.968354 -5.256017 -6.398504 -0.967504 -5.108216 -3.230623 -5.349263 -5.059565 3.021884 13.215744 -25.556653 -9.259745 -1.396802 -0.083377 -0.306947 0.000000 0.000000 0.000000 18.278240 6.285212 -2.790485 -33.835802 -21.498965 -2.119063 179.576604 -73.515480 179.983186 -0.344341 -6.155220 0.030841 0.182810 0.721580 -0.000000 0.000000 0.000000 0.000000 0.000000 0.000000 0.000000 8.412887 -23.504958 -1.435098 46.767947 2.881481 -8.570485 179.114025 68.643073 179.961394 -8.125891 9.817938 -0.755709 0.204829 -0.556618 -0.000000 0.000000 0.000000 0.000000 0.000000 0.000000 0.000000 
2.331488 16.989070 1.058159 14.933037 -71.388163 -2.154048 -9.197245 3.204150 4.641363 -10.582097 -1.165523 -24.294242 -2.420456 0.157387 20.343278 1.358616 6.959982 -7.522047 0.064500 -0.000000 -47.172600 11.542848 -0.149219 -0.005542 -2.723167 -18.496434 -16.802864 0.902968 -0.180582 21.435616 -2.843978 -13.709594 -6.970021 -0.888000 -0.000000 -71.669400 -3.293545 -5.223925 -6.602634 -1.047007 -5.046378 -3.267300 -5.384179 -4.994916 2.987946 13.244853 -25.543057 -9.377581 -1.390562 -0.080864 -0.337676 0.000000 0.000000 0.000000 18.351520 6.445760 -2.828303 -33.892487 -22.600761 -1.370698 179.567499 -73.332386 179.984169 -0.464101 -6.109803 0.038089 0.188382 0.726224 -0.000000 0.000000 0.000000 0.000000 0.000000 0.000000 0.000000 8.512845 -23.432393 -1.382453 46.787529 2.409404 -8.863141 179.128780 68.881380 179.961282 -8.180161 9.713402 -0.752474 0.204591 -0.551140 -0.000000 0.000000 0.000000 0.000000 0.000000 0.000000 0.000000 
2.299341 16.997257 1.061611 13.890295 -69.602685 -1.272976 -9.122080 3.232196 4.963500 -10.357005 -2.406992 -23.915220 -2.397420 0.116016 19.840147 1.286374 6.584922 -7.150431 0.112700 -0.000000 -47.268501 11.588784 -0.224256 -0.121226 -2.660041 -19.272529 -15.844453 0.858673 -0.116612 20.757065 -3.021874 -14.768552 -6.767590 -1.017100 -0.000001 -71.433800 -3.633887 -5.183419 -6.813362 -1.131171 -4.974635 -3.305954 -5.419291 -4.920568 2.949803 13.263939 -25.504171 -9.496039 -1.383801 -0.078286 -0.368959 0.000000 0.000000 0.000000 18.420741 6.613475 -2.855866 -33.927880 -23.680108 -0.670056 179.560471 -73.137769 179.985233 -0.589089 -6.071091 0.045639 0.193921 0.731065 -0.000000 0.000000 0.000000 0.000000 0.000000 0.000000 0.000000 8.600774 -23.326361 -1.325544 46.763808 2.018268 -9.160196 179.145758 69.150121 179.961070 -8.238060 9.616803 -0.750141 0.204212 -0.546225 -0.000000 0.000000 0.000000 0.000000 0.000000 0.000000 0.000000 
2.266348 17.007072 1.065350 13.001072 -67.816553 -0.531632 -9.034490 3.262047 5.288616 -10.136769 -3.636661 -23.525250 -2.379662 0.069235 19.259412 1.213126 6.216939 -6.727199 0.164200 0.000000 -47.373200 11.644396 -0.307229 -0.226004 -2.588436 -20.053734 -14.891107 0.817116 -0.049146 20.000180 -3.193202 -15.813127 -6.506865 -1.171801 0.000000 -71.181400 -3.990154 -5.133139 -7.038056 -1.219814 -4.891478 -3.347989 -5.452140 -4.835191 2.908021 13.266112 -25.450010 -9.611926 -1.376634 -0.075717 -0.399914 0.000000 0.000000 0.000000 18.476802 6.775709 -2.873578 -33.914365 -24.718988 -0.031900 179.553992 -72.923838 179.986230 -0.704823 -6.038746 0.052590 0.199121 0.736038 -0.000000 0.000000 0.000000 0.000000 0.000000 0.000000 0.000000 8.672581 -23.198495 -1.263996 46.671931 1.743061 -9.440193 179.165013 69.463089 179.960722 -8.309089 9.529504 -0.749508 0.203988 -0.541919 -0.000000 0.000000 0.000000 0.000000 0.000000 0.000000 0.000000 
2.233316 17.018235 1.069479 12.230114 -66.043750 0.096005 -8.936421 3.293216 5.610994 -9.919717 -4.841267 -23.119798 -2.367375 0.018683 18.612772 1.139084 5.855618 -6.262439 0.216401 -0.000000 -47.474200 11.708607 -0.396798 -0.324551 -2.510704 -20.845691 -13.937825 0.779175 0.021159 19.168560 -3.354719 -16.829945 -6.187659 -1.353500 -0.000000 -70.938400 -4.355191 -5.074610 -7.266814 -1.310846 -4.799071 -3.391687 -5.479844 -4.741197 2.863024 13.240102 -25.372707 -9.719701 -1.367893 -0.073145 -0.429142 0.000000 0.000000 0.000000 18.514523 6.938017 -2.880304 -33.843896 -25.710301 0.525994 179.547363 -72.696331 179.987149 -0.812141 -6.013627 0.058944 0.204043 0.741185 -0.000000 0.000000 0.000000 0.000000 0.000000 0.000000 0.000000 8.709369 -23.043570 -1.199634 46.514841 1.612892 -9.697929 179.188661 69.846461 179.960206 -8.391920 9.464015 -0.751578 0.203637 -0.538510 0.000000 0.000000 0.000000 0.000000 0.000000 0.000000 0.000000 
2.200470 17.030346 1.074107 11.560523 -64.297423 0.628743 -8.828894 3.325721 5.929491 -9.707464 -6.017298 -22.700491 -2.360508 -0.035320 17.907118 1.065585 5.507833 -5.763734 0.268300 -0.000000 -47.569400 11.780896 -0.492140 -0.417141 -2.430529 -21.649314 -12.993327 0.745899 0.093486 18.273579 -3.503742 -17.804782 -5.816920 -1.560800 -0.000000 -70.699900 -4.725282 -5.007821 -7.499640 -1.403121 -4.697730 -3.437338 -5.500046 -4.639125 2.814822 13.176498 -25.269475 -9.814298 -1.357339 -0.070642 -0.455268 0.000000 0.000000 0.000000 18.526434 7.096569 -2.875708 -33.698224 -26.642206 0.988822 179.539386 -72.454041 179.987919 -0.903708 -5.994763 0.064499 0.208524 0.746473 -0.000000 0.000000 0.000000 0.000000 0.000000 0.000000 0.000000 8.699738 -22.860218 -1.132747 46.281640 1.645935 -9.930740 179.218050 70.322394 179.959469 -8.492339 9.421160 -0.756851 0.203173 -0.535978 0.000000 0.000000 0.000000 0.000000 0.000000 0.000000 0.000000 
2.168465 17.043159 1.079305 10.972910 -62.591338 1.080417 -8.713761 3.358777 6.241464 -9.500014 -7.160101 -22.265660 -2.358613 -0.092103 17.149790 0.993842 5.180009 -5.238997 0.319000 0.000000 -47.655100 11.859936 -0.592225 -0.505643 -2.351907 -22.464520 -12.060073 0.718050 0.166965 17.324157 -3.637771 -18.724977 -5.399635 -1.792100 0.000000 -70.470100 -5.094775 -4.932810 -7.733017 -1.495211 -4.588038 -3.484886 -5.510802 -4.529782 2.762151 13.066586 -25.131567 -9.890098 -1.344837 -0.068293 -0.476777 0.000000 0.000000 0.000000 18.506823 7.249807 -2.859299 -33.464249 -27.505579 1.343325 179.529077 -72.199748 179.988496 -0.975713 -5.981086 0.068857 0.212479 0.751872 -0.000000 0.000000 0.000000 0.000000 0.000000 0.000000 0.000000 8.632086 -22.639931 -1.063593 45.964879 1.846769 -10.146561 179.254889 70.912720 179.958449 -8.615714 9.398448 -0.765731 0.202518 -0.534214 -0.000000 0.000000 0.000000 0.000000 0.000000 0.000000 0.000000 
2.137571 17.056374 1.085050 10.456176 -60.938834 1.461755 -8.593149 3.391907 6.544487 -9.297492 -8.264459 -21.813512 -2.361321 -0.151225 16.348051 0.924855 4.877375 -4.696365 0.368000 -0.000000 -47.726200 11.944350 -0.696516 -0.591037 -2.278736 -23.288433 -11.139959 0.696184 0.240873 16.328393 -3.754721 -19.579225 -4.940610 -2.044800 -0.000000 -70.250500 -5.458293 -4.849248 -7.964314 -1.585901 -4.470227 -3.534514 -5.510933 -4.413585 2.703624 12.903747 -24.947010 -9.941958 -1.330540 -0.066203 -0.492261 0.000000 0.000000 0.000000 18.450835 7.398784 -2.830449 -33.132561 -28.296557 1.580572 179.516021 -71.940451 179.988856 -1.025382 -5.971444 0.071818 0.215785 0.757329 -0.000000 0.000000 0.000000 0.000000 0.000000 0.000000 0.000000 8.497647 -22.370153 -0.992267 45.558327 2.205430 -10.360872 179.300552 71.633201 179.957086 -8.768202 9.388387 -0.778017 0.201617 -0.533008 -0.000000 0.000000 0.000000 0.000000 0.000000 0.000000 0.000000 
